<svg t="1758982340602" class="icon" viewBox="0 0 1024 1024" version="1.1" xmlns="http://www.w3.org/2000/svg" p-id="1065" width="200" height="200"><path d="M617.926307 137.800717a30.001703 30.001703 0 0 0-22.918912 1.511802 30.001703 30.001703 0 0 0-13.621332 40.168568c37.197879 75.408664 64.115506 208.008784 64.115506 357.541082 0 122.758291-17.778787 233.890827-45.104601 311.695697-13.659128 38.906214-29.858082 69.361458-45.543024 88.24386-15.677383 18.882402-28.57305 24.92205-39.095189 24.92205-10.51458 0-23.432925-6.039647-39.110308-24.92205-15.677383-18.882402-31.883896-49.337646-45.543024-88.24386-27.325814-77.80487-45.104601-188.929847-45.104601-311.688138 0-148.06585 26.350702-279.509441 63.027009-355.303615a30.001703 30.001703 0 0 0-13.93881-40.062743 30.001703 30.001703 0 0 0-40.062743 13.931252c-43.328234 89.53645-69.028862 226.498118-69.028862 381.427547 0 128.457783 17.997998 244.760681 48.491037 331.568329 15.23896 43.411383 33.463729 79.566119 56.01225 106.710517 22.540962 27.151957 51.658261 46.578608 85.258052 46.578608s62.71709-19.426651 85.26561-46.578608c22.540962-27.144398 40.743053-63.299133 55.997132-106.710517 30.48548-86.807649 48.483478-203.110547 48.483478-331.56077 0-156.471467-26.154168-294.60478-70.306334-384.095877a30.001703 30.001703 0 0 0-17.272334-15.133134z" fill="#00496E" p-id="1066"></path><path d="M796.386929 241.056767c-20.106961 0.899522-41.514072 3.590529-64.115507 7.84625-90.428413 17.000209-200.139856 59.564984-311.385778 123.793875C275.866075 456.412907 163.962519 555.125993 112.500793 643.01458a30.001703 30.001703 0 0 0 10.718673 41.045413 30.001703 30.001703 0 0 0 41.060532-10.718673c41.68037-71.183179 148.005378-168.664147 286.607349-248.676247 106.309889-61.379145 211.425455-101.555273 292.465581-116.794234 40.523842-7.61948 75.023155-8.821362 99.211981-4.686585 24.196385 4.142336 35.859934 12.306065 41.121004 21.407111 5.253511 9.108605 6.493188 23.311981-2.025814 46.33672-8.511443 23.01718-26.789125 52.285659-53.64628 83.572393-53.72187 62.573469-141.073767 133.514759-247.383657 194.893904-134.95853 77.918255-268.805886 121.170899-352.053242 123.740962a30.001703 30.001703 0 0 0-29.071945 30.916343 30.001703 30.001703 0 0 0 30.916343 29.049268c101.026143-3.106752 238.985599-50.214491 380.210547-131.75351 111.238363-64.221332 202.959366-137.951897 262.9023-207.766896 29.963908-34.907499 52.164715-68.756737 64.402749-101.857633 12.245593-33.093337 14.513295-68.031073-2.282821-97.133254-16.803675-29.094622-48.188676-44.58303-82.975231-50.531969-17.385719-2.97069-36.192531-3.892889-56.291933-2.993367z" fill="#00496E" p-id="1067"></path><path d="M235.115462 241.056767c-20.106961-0.891963-38.898655 0.030236-56.291933 3.000926-34.786555 5.948939-66.156439 21.437347-82.960113 50.539528-16.796116 29.094622-14.543532 64.024798-2.305498 97.133254 12.245593 33.093337 34.4464 66.942575 64.417867 101.850074 59.942934 69.807439 151.671497 143.545563 262.909859 207.766896 135.139946 78.024081 267.483059 124.383478 366.952047 131.103436a30.001703 30.001703 0 0 0 31.951927-27.915417 30.001703 30.001703 0 0 0-27.907858-31.951927c-83.927666-5.669256-211.84876-48.627099-340.994413-123.189155-106.309889-61.379145-193.676905-132.320436-247.398774-194.893904-26.857156-31.286734-45.127278-60.555214-53.646281-83.579952-8.519002-23.01718-7.279325-37.220556-2.025814-46.329161 5.26107-9.101046 16.932178-17.264774 41.136122-21.407111 24.188826-4.134777 58.673021-2.932895 99.196863 4.686585 81.047684 15.23896 186.17081 55.407529 292.480699 116.786675 130.528951 75.36331 232.477293 165.844637 278.67795 235.961995a30.001703 30.001703 0 0 0 41.544308 8.54168 30.001703 30.001703 0 0 0 8.549238-41.559427c-55.044697-83.534598-162.193636-176.049298-298.769793-254.90487-111.245922-64.228891-220.972483-106.793666-311.400896-123.793875-22.601434-4.255722-44.016104-6.954287-64.115507-7.838691z" fill="#00496E" p-id="1068"></path><path d="M909.666224 684.876366c-43.592799 0-79.573678 35.980878-79.573678 79.573678 0 43.592799 35.980878 79.573678 79.573678 79.573678 43.592799 0 79.581237-35.980878 79.581236-79.573678 0-43.592799-35.980878-79.573678-79.581236-79.573678z m0 59.995847c11.172214 0 19.577831 8.405617 19.57783 19.577831 0 11.164655-8.405617 19.577831-19.57783 19.577831-11.164655 0-19.577831-8.413176-19.577831-19.577831 0-11.172214 8.413176-19.577831 19.577831-19.577831zM515.123798 2.124081C471.530998 2.124081 435.55012 38.10496 435.55012 81.712877c0 43.592799 35.980878 79.573678 79.573678 79.573678 43.592799 0 79.573678-35.980878 79.573678-79.573678C594.697476 38.097401 558.716597 2.116522 515.123798 2.116522z m0 60.003406c11.164655 0 19.577831 8.405617 19.577831 19.577831 0 11.164655-8.413176 19.577831-19.577831 19.577831-11.164655 0-19.577831-8.413176-19.577831-19.577831 0-11.172214 8.413176-19.577831 19.577831-19.577831zM114.337632 693.055213c-43.600358 0-79.581237 35.980878-79.581237 79.573678 0 43.592799 35.980878 79.573678 79.581237 79.573678 43.592799 0 79.573678-35.980878 79.573677-79.573678 0-43.592799-35.980878-79.573678-79.573677-79.573678z m0 59.995847c11.164655 0 19.577831 8.413176 19.57783 19.577831 0 11.164655-8.413176 19.577831-19.57783 19.577831-11.172214 0-19.577831-8.413176-19.577831-19.577831 0-11.164655 8.405617-19.577831 19.577831-19.577831z" fill="#FF6600" p-id="1069"></path></svg>