<svg t="1759379066878" class="icon" viewBox="0 0 1024 1024" version="1.1" xmlns="http://www.w3.org/2000/svg" p-id="1908" width="200" height="200"><path d="M0 0m512 0l0 0q512 0 512 512l0 0q0 512-512 512l0 0q-512 0-512-512l0 0q0-512 512-512Z" fill="#F6F7FA" p-id="1909"></path><path d="M551.776 506.496l67.872 67.904a32 32 0 1 1-45.248 45.248l-67.904-67.872-67.84 67.872a32 32 0 0 1-45.28-45.248l67.872-67.904-67.872-67.84a32 32 0 0 1 45.248-45.28l67.872 67.872 67.904-67.872a32 32 0 1 1 45.248 45.248l-67.872 67.872z" fill="#F03435" p-id="1910"></path></svg>