<svg t="1759387946889" class="icon" viewBox="0 0 1024 1024" version="1.1" xmlns="http://www.w3.org/2000/svg" p-id="1362" width="200" height="200"><path d="M512 697.331512c-102.150244 0-185.331512-83.16878-185.331512-185.331512S409.849756 326.730927 512 326.730927 697.331512 409.849756 697.331512 512 614.150244 697.331512 512 697.331512z m0-282.51161c-53.622634 0-97.242537 43.607415-97.242537 97.180098 0 53.622634 43.607415 97.242537 97.242537 97.242537s97.242537-43.607415 97.242537-97.242537c0-53.560195-43.619902-97.180098-97.242537-97.180098z" fill="#020202" p-id="1363"></path><path d="M512 854.952585c-181.02322 0-347.310829-106.945561-494.067512-317.764683a43.997034 43.997034 0 0 1 0-50.375804C164.75161 275.992976 330.97678 169.047415 512 169.047415c181.085659 0 347.373268 106.945561 494.067512 317.827122a43.798478 43.798478 0 0 1 0 50.250926C859.373268 748.007024 693.085659 854.952585 512 854.952585zM108.169366 512C233.984 683.445073 366.292293 766.86361 512 766.86361c145.770146 0 278.078439-83.418537 403.830634-254.86361C790.078439 340.554927 657.770146 257.13639 512 257.13639c-145.645268 0-277.966049 83.418537-403.830634 254.86361z" fill="currentColor" p-id="1364"></path></svg>