<svg t="1759387856901" class="icon" viewBox="0 0 1024 1024" version="1.1" xmlns="http://www.w3.org/2000/svg" p-id="2237" width="200" height="200"><path d="M729.856 139.008l3.242667 0.597333 85.333333 21.333334 3.114667 0.981333a32 32 0 0 1-15.402667 61.738667l-3.242667-0.64-85.333333-21.333334-3.114667-0.938666a32 32 0 0 1 15.402667-61.738667zM289.152 139.648a32 32 0 0 1 15.829333 62.037333l-83.754666 21.333334a32 32 0 0 1-15.786667-62.037334l83.712-21.333333zM245.930667 250.112c180.864-37.376 391.338667-34.730667 567.936 8.021333l8.106666 2.218667c39.893333 12.373333 70.528 42.666667 85.077334 81.450667l9.514666 27.050666c22.272 68.138667 45.226667 170.666667 53.674667 303.616l0.426667 10.154667c1.450667 97.109333-67.84 151.893333-134.314667 187.52l-13.738667 7.125333c-19.541333 9.813333-39.68 10.325333-58.154666 3.114667-16.981333-6.698667-30.464-19.072-40.832-31.36-15.445333-18.346667-28.330667-41.941333-38.698667-63.573333l-9.514667-20.693334a45.824 45.824 0 0 0-42.752-27.306666H391.338667c-16.768 0-31.274667 8.106667-39.594667 21.290666l-3.157333 5.973334c-11.52 26.026667-27.648 59.904-48.213334 84.309333-10.368 12.288-23.808 24.661333-40.832 31.36a69.12 69.12 0 0 1-50.816 0.128l-7.338666-3.242667c-71.68-36.096-154.709333-93.610667-147.626667-204.8l2.048-28.074666c11.221333-137.685333 37.802667-240.213333 61.141333-302.592l3.157334-7.68a132.309333 132.309333 0 0 1 90.026666-75.989334l35.797334-8.021333z m552.917333 70.229333c-167.381333-40.533333-368.213333-43.050667-539.733333-7.594666l-33.962667 7.594666c-19.328 4.693333-35.285333 17.493333-44.629333 35.712l-3.626667 8.192c-21.12 56.362667-46.506667 153.002667-57.301333 285.312l-1.962667 26.965334c-4.352 68.522667 43.008 108.544 112.554667 143.573333l2.048 0.853333a5.12 5.12 0 0 0 3.925333-0.170666c3.072-1.194667 8.32-4.736 15.274667-13.013334 14.037333-16.64 27.008-42.709333 38.656-68.992l3.626666-7.424a109.866667 109.866667 0 0 1 97.621334-57.898666h241.322666c43.861333 0 83.328 24.917333 101.248 65.322666l9.002667 19.498667c9.216 19.2 19.157333 36.992 29.696 49.493333 6.954667 8.277333 12.16 11.818667 15.232 13.013334 1.621333 0.64 2.858667 0.938667 5.973333-0.682667l12.885334-6.656c58.709333-31.530667 98.176-68.053333 99.882666-124.544l-0.213333-12.373333c-8.149333-127.914667-30.165333-225.024-50.602667-287.573334l-8.618666-24.746666a69.376 69.376 0 0 0-40.277334-41.386667l-8.021333-2.474667z" fill="currentColor" p-id="2238"></path><path d="M309.333333 554.666667v-128a32 32 0 1 1 64 0v128a32 32 0 1 1-64 0zM480 554.666667v-85.333334a32 32 0 0 1 64 0v85.333334a32 32 0 1 1-64 0zM650.666667 554.666667v-128a32 32 0 0 1 64 0v128a32 32 0 1 1-64 0z" fill="currentColor" p-id="2239"></path></svg>