<svg t="1759387621192" class="icon" viewBox="0 0 1066 1024" version="1.1" xmlns="http://www.w3.org/2000/svg" p-id="1139" width="200" height="200"><path d="M368.213333 637.952a304.810667 304.810667 0 0 1 316.032 0c15.018667 9.130667 54.229333 29.44 79.274667 54.528 12.885333 12.885333 26.496 31.146667 29.013333 54.442667 2.645333 25.173333-8.32 47.957333-27.904 67.029333-31.573333 30.762667-71.253333 57.173333-123.434666 57.173333h-229.973334c-52.138667 0-91.818667-26.410667-123.434666-57.173333-19.584-19.072-30.549333-41.898667-27.861334-67.029333 2.474667-23.296 16.085333-41.557333 29.013334-54.442667 25.002667-25.088 64.256-45.397333 79.232-54.528zM611.498667 96c79.573333 0 142.464-0.042667 191.573333 6.528 50.005333 6.741333 90.453333 20.906667 122.410667 52.864 31.914667 31.914667 46.08 72.362667 52.821333 122.410667 6.613333 49.066667 6.528 112 6.528 191.530666 0 79.530667 0.085333 142.421333-6.528 191.573334-6.741333 50.005333-20.906667 90.453333-52.821333 122.368a159.146667 159.146667 0 0 1-22.314667 18.645333 32.042667 32.042667 0 0 1-36.309333-52.693333 95.573333 95.573333 0 0 0 13.354666-11.178667c18.048-18.048 28.885333-42.794667 34.688-85.717333 5.888-43.861333 5.973333-101.632 5.973334-182.997334 0-81.365333-0.085333-139.136-5.973334-183.04-5.802667-42.88-16.64-67.626667-34.688-85.674666-18.048-18.048-42.794667-28.885333-85.717333-34.645334-43.818667-5.930667-101.632-5.973333-182.997333-5.973333h-170.666667c-81.322667 0-139.136 0.085333-182.997333 5.973333-42.922667 5.76-67.626667 16.597333-85.717334 34.645334-18.048 18.048-28.885333 42.794667-34.645333 85.717333-5.888 43.861333-5.973333 101.632-5.973333 182.997333 0 81.365333 0.085333 139.136 5.973333 183.04 5.76 42.88 16.64 67.626667 34.645333 85.674667 4.181333 4.181333 8.618667 7.893333 13.397334 11.178667a32 32 0 0 1-36.352 52.693333 158.890667 158.890667 0 0 1-22.272-18.645333c-31.914667-31.914667-46.08-72.362667-52.821334-122.410667-6.613333-49.066667-6.570667-112-6.570666-191.530667 0-79.530667-0.042667-142.421333 6.570666-191.573333 6.698667-50.005333 20.906667-90.453333 52.821334-122.368 31.914667-31.957333 72.405333-46.122667 122.410666-52.864 49.066667-6.570667 112-6.528 191.573334-6.528h170.666666z m39.424 596.608a240.768 240.768 0 0 0-249.514667 0c-21.888 13.354667-49.408 27.221333-67.242667 45.056-8.533333 8.533333-10.368 13.909333-10.624 16.085333-0.042667 0.469333-0.768 4.992 8.874667 14.378667 25.984 25.301333 50.432 38.997333 78.805333 38.997333h229.930667c28.373333 0 52.821333-13.696 78.762667-38.997333 9.685333-9.386667 8.96-13.909333 8.874666-14.378667-0.213333-2.133333-2.133333-7.552-10.624-16.085333-17.834667-17.834667-45.354667-31.701333-67.242666-45.056zM227.413333 369.493333a32.170667 32.170667 0 0 1 43.136 14.378667l56.874667 113.792a32.128 32.128 0 0 1-57.514667 28.757333L212.992 412.586667a32.170667 32.170667 0 0 1 14.378667-43.093334z m554.538667 14.378667a32.170667 32.170667 0 0 1 57.514667 28.757333l-56.874667 113.792a32.170667 32.170667 0 0 1-57.514667-28.757333l56.874667-113.792z m-255.146667-23.893333a31.232 31.232 0 0 1 32.213334 31.274666l-2.176 120.533334c-0.341333 17.408-15.189333 31.658667-33.28 31.786666a31.189333 31.189333 0 0 1-32.128-31.274666l2.090666-120.448c0.298667-17.450667 15.232-31.744 33.28-31.872z" fill="currentColor" p-id="1140"></path></svg>