<svg t="1759387961393" class="icon" viewBox="0 0 1024 1024" version="1.1" xmlns="http://www.w3.org/2000/svg" p-id="1519" width="200" height="200"><path d="M717.386927 439.633171H306.675512c-24.326244 0-44.044488-19.718244-44.044488-44.044488v-119.296c0-131.883707 112.040585-239.203902 249.706147-239.203903 137.353366 0 249.094244 107.320195 249.094244 239.203903v119.296c0 24.326244-19.718244 44.044488-44.044488 44.044488z m-366.666927-88.076488H673.342439v-75.251512c0-83.356098-72.241951-151.114927-161.005268-151.114927-89.125463 0-161.617171 67.758829-161.617171 151.114927v75.251512zM512.024976 793.212878c-24.326244 0-44.044488-19.718244-44.044488-44.044488V589.274537c0-24.326244 19.718244-44.044488 44.044488-44.044488s44.044488 19.718244 44.044487 44.044488v159.893853c0 24.326244-19.718244 44.044488-44.044487 44.044488z" fill="#020202" p-id="1520"></path><path d="M774.506146 986.898732H249.493854c-77.71161 0-140.91239-63.213268-140.912391-140.912391V492.469073c0-77.71161 63.213268-140.91239 140.912391-140.91239h525.02478c77.71161 0 140.91239 63.213268 140.91239 140.91239v353.517268c0 77.699122-63.213268 140.91239-140.924878 140.912391zM249.493854 439.633171c-29.121561 0-52.823415 23.714341-52.823415 52.823414v353.517269c0 29.121561 23.714341 52.823415 52.823415 52.823414h525.02478c29.121561 0 52.823415-23.714341 52.823415-52.823414V492.469073c0-29.121561-23.714341-52.823415-52.823415-52.823414H249.493854z" fill="currentColor" p-id="1521"></path></svg>