<svg t="1759387809361" class="icon" viewBox="0 0 1024 1024" version="1.1" xmlns="http://www.w3.org/2000/svg" p-id="1924" width="200" height="200"><path d="M906.666667 213.333333c0-20.309333 0-33.962667-0.768-44.501333-0.682667-10.24-1.92-15.274667-3.285334-18.602667a53.376 53.376 0 0 0-28.885333-28.842666c-3.285333-1.365333-8.277333-2.602667-18.56-3.285334A727.04 727.04 0 0 0 810.666667 117.333333c-20.309333 0-33.962667 0-44.501334 0.768-10.24 0.682667-15.274667 1.92-18.602666 3.285334-13.056 5.418667-23.466667 15.786667-28.842667 28.842666-1.365333 3.328-2.602667 8.32-3.285333 18.602667-0.725333 10.538667-0.768 24.192-0.768 44.501333v170.666667c0 20.309333 0 33.962667 0.768 44.501333 0.682667 10.24 1.92 15.274667 3.285333 18.602667 5.418667 13.056 15.786667 23.466667 28.885333 28.842667 3.285333 1.365333 8.277333 2.602667 18.56 3.285333 10.538667 0.725333 24.192 0.768 44.501334 0.768s33.962667 0 44.501333-0.768c10.24-0.682667 15.274667-1.92 18.602667-3.285333 13.056-5.418667 23.466667-15.786667 28.842666-28.842667 1.365333-3.328 2.602667-8.32 3.285334-18.602667 0.725333-10.538667 0.768-24.192 0.768-44.501333V213.333333z m64 170.666667c0 19.456 0 35.626667-0.853334 48.896a120.405333 120.405333 0 0 1-8.064 38.698667 117.333333 117.333333 0 0 1-63.488 63.488c-12.373333 5.12-25.173333 7.125333-38.741333 8.021333-13.226667 0.938667-29.44 0.896-48.853333 0.896-19.456 0-35.626667 0-48.853334-0.853333a120.405333 120.405333 0 0 1-38.741333-8.064 117.333333 117.333333 0 0 1-63.488-63.488c-5.12-12.373333-7.125333-25.173333-8.021333-38.741334-0.938667-13.226667-0.896-29.44-0.896-48.853333V213.333333c0-19.456 0-35.626667 0.853333-48.896 0.938667-13.525333 2.944-26.282667 8.064-38.698666a117.333333 117.333333 0 0 1 63.488-63.488c12.373333-5.12 25.173333-7.125333 38.741333-8.021334 13.226667-0.938667 29.44-0.896 48.853334-0.896 19.456 0 35.626667 0 48.853333 0.853334 13.568 0.938667 26.325333 2.944 38.741333 8.064a117.333333 117.333333 0 0 1 63.488 63.488c5.12 12.373333 7.125333 25.173333 8.064 38.698666 0.853333 13.226667 0.853333 29.44 0.853334 48.896v170.666667zM906.666667 810.666667c0-20.309333 0-33.962667-0.768-44.501334-0.682667-10.24-1.92-15.274667-3.285334-18.602666a53.376 53.376 0 0 0-28.885333-28.842667c-3.285333-1.365333-8.277333-2.602667-18.56-3.285333A725.845333 725.845333 0 0 0 810.666667 714.666667c-20.309333 0-33.962667 0-44.501334 0.768-10.24 0.682667-15.274667 1.92-18.602666 3.285333-13.056 5.418667-23.466667 15.786667-28.842667 28.885333-1.365333 3.285333-2.602667 8.277333-3.285333 18.56-0.725333 10.538667-0.768 24.192-0.768 44.501334s0 33.962667 0.768 44.501333c0.682667 10.24 1.92 15.274667 3.285333 18.602667 5.418667 13.056 15.786667 23.466667 28.885333 28.842666 3.285333 1.365333 8.277333 2.602667 18.56 3.285334 10.538667 0.725333 24.192 0.768 44.501334 0.768s33.962667 0 44.501333-0.768c10.24-0.682667 15.274667-1.92 18.602667-3.285334 13.056-5.418667 23.466667-15.786667 28.842666-28.885333 1.365333-3.285333 2.602667-8.277333 3.285334-18.56 0.725333-10.538667 0.768-24.192 0.768-44.501333z m64 0c0 19.456 0 35.626667-0.853334 48.853333a120.405333 120.405333 0 0 1-8.064 38.741333 117.333333 117.333333 0 0 1-63.488 63.488c-12.373333 5.12-25.173333 7.125333-38.741333 8.064-13.226667 0.853333-29.44 0.853333-48.853333 0.853334-19.456 0-35.626667 0-48.853334-0.853334a120.405333 120.405333 0 0 1-38.741333-8.064 117.333333 117.333333 0 0 1-63.488-63.488c-5.12-12.373333-7.125333-25.173333-8.021333-38.741333-0.938667-13.226667-0.896-29.44-0.896-48.853333 0-19.456 0-35.626667 0.853333-48.853334 0.938667-13.568 2.944-26.325333 8.064-38.741333a117.333333 117.333333 0 0 1 63.488-63.488c12.373333-5.12 25.173333-7.125333 38.741333-8.021333 13.226667-0.938667 29.44-0.896 48.853334-0.896 19.456 0 35.626667 0 48.853333 0.853333 13.568 0.938667 26.325333 2.944 38.741333 8.064a117.333333 117.333333 0 0 1 63.488 63.488c5.12 12.373333 7.125333 25.173333 8.064 38.741333 0.853333 13.226667 0.853333 29.44 0.853334 48.853334zM480 682.666667c0-41.130667-0.085333-68.778667-2.816-89.386667-2.645333-19.669333-7.253333-28.117333-12.8-33.664-5.546667-5.546667-13.994667-10.112-33.706667-12.8-20.565333-2.773333-48.213333-2.816-89.344-2.816H256c-41.130667 0-68.778667 0.085333-89.386667 2.816-19.669333 2.688-28.074667 7.253333-33.664 12.8-5.546667 5.546667-10.154667 13.994667-12.8 33.706667-2.773333 20.565333-2.816 48.213333-2.816 89.344v85.333333c0 41.130667 0.042667 68.778667 2.816 89.386667 2.645333 19.669333 7.253333 28.117333 12.8 33.664 5.546667 5.546667 13.994667 10.154667 33.706667 12.8 20.565333 2.730667 48.213333 2.816 89.344 2.816h85.333333c41.130667 0 68.778667-0.085333 89.386667-2.816 19.669333-2.645333 28.117333-7.253333 33.664-12.8 5.546667-5.546667 10.154667-13.994667 12.8-33.706667 2.773333-20.565333 2.816-48.213333 2.816-89.344v-85.333333z m64 85.333333c0 39.338667 0.042667 72.064-3.413333 97.92-3.626667 26.752-11.52 50.944-30.976 70.4-19.413333 19.413333-43.605333 27.306667-70.4 30.933333-25.813333 3.456-58.538667 3.413333-97.877334 3.413334H256c-39.338667 0-72.064 0.042667-97.92-3.413334-26.794667-3.626667-50.944-11.52-70.4-30.976-19.413333-19.413333-27.306667-43.562667-30.933333-70.4-3.456-25.813333-3.413333-58.538667-3.413334-97.877333v-85.333333c0-39.338667-0.042667-72.064 3.413334-97.92 3.626667-26.752 11.52-50.944 30.976-70.4 19.413333-19.413333 43.562667-27.306667 70.4-30.933334 25.813333-3.456 58.538667-3.413333 97.877333-3.413333h85.333333c39.338667 0 72.064-0.042667 97.92 3.413333 26.752 3.626667 50.944 11.52 70.4 30.976 19.413333 19.413333 27.306667 43.605333 30.933334 70.4 3.456 25.813333 3.413333 58.538667 3.413333 97.877334v85.333333zM480 213.333333c0-20.309333 0-33.962667-0.768-44.501333-0.682667-10.24-1.92-15.274667-3.285333-18.602667a53.376 53.376 0 0 0-28.842667-28.842666c-3.328-1.365333-8.32-2.602667-18.602667-3.285334A726.997333 726.997333 0 0 0 384 117.333333H213.333333c-20.309333 0-33.962667 0-44.501333 0.768-10.24 0.682667-15.274667 1.92-18.602667 3.285334a53.333333 53.333333 0 0 0-28.842666 28.842666c-1.365333 3.328-2.602667 8.32-3.285334 18.602667-0.725333 10.538667-0.768 24.192-0.768 44.501333s0 33.962667 0.768 44.501334c0.682667 10.24 1.92 15.274667 3.285334 18.602666 5.418667 13.056 15.786667 23.466667 28.842666 28.842667 3.328 1.365333 8.32 2.602667 18.602667 3.285333 10.538667 0.725333 24.192 0.768 44.501333 0.768h170.666667c20.309333 0 33.962667 0 44.501333-0.768 10.24-0.682667 15.274667-1.92 18.602667-3.285333 13.056-5.418667 23.466667-15.786667 28.842667-28.842667 1.365333-3.328 2.602667-8.32 3.285333-18.602666 0.725333-10.538667 0.768-24.192 0.768-44.501334z m64 0c0 19.456 0 35.626667-0.853333 48.896a120.448 120.448 0 0 1-8.064 38.698667 117.333333 117.333333 0 0 1-63.488 63.488c-12.373333 5.12-25.173333 7.125333-38.741334 8.021333-13.226667 0.938667-29.44 0.896-48.853333 0.896H213.333333c-19.456 0-35.626667 0-48.896-0.853333a120.533333 120.533333 0 0 1-38.698666-8.064A117.333333 117.333333 0 0 1 62.293333 300.928c-5.12-12.373333-7.125333-25.173333-8.021333-38.698667-0.938667-13.226667-0.896-29.44-0.896-48.896 0-19.456 0-35.626667 0.853333-48.896 0.938667-13.525333 2.944-26.282667 8.064-38.698666A117.333333 117.333333 0 0 1 125.738667 62.293333c12.373333-5.12 25.173333-7.125333 38.698666-8.021333 13.226667-0.938667 29.44-0.896 48.896-0.896h170.666667c19.456 0 35.626667 0 48.896 0.853333 13.525333 0.938667 26.282667 2.944 38.698667 8.064a117.333333 117.333333 0 0 1 63.488 63.488c5.12 12.373333 7.125333 25.173333 8.021333 38.698667 0.938667 13.226667 0.896 29.44 0.896 48.896z" fill="currentColor" p-id="1925"></path></svg>