<?xml version="1.0" standalone="no"?><!DOCTYPE svg PUBLIC "-//W3C//DTD SVG 1.1//EN" "http://www.w3.org/Graphics/SVG/1.1/DTD/svg11.dtd"><svg t="1758982932799" class="icon" viewBox="0 0 1024 1024" version="1.1" xmlns="http://www.w3.org/2000/svg" p-id="1220" xmlns:xlink="http://www.w3.org/1999/xlink" width="200" height="200"><path d="M491.539617 217.631401c-94.585868 6.735076-184.364207 58.710816-235.198536 146.765701-81.342486 140.892351-32.836331 321.930594 108.056021 403.27308 140.884792 81.334927 321.923035 32.828772 403.27308-108.056021 81.334927-140.892351 32.828772-321.930594-108.06358-403.27308a293.440693 293.440693 0 0 0-168.066985-38.70968z m4.006274 59.542307c45.149955-3.159665 91.766358 6.697281 134.059008 31.120436 112.810636 65.128413 151.217956 208.507678 86.097102 321.318314-65.135972 112.803077-208.500119 151.217956-321.310755 86.089543-112.803077-65.135972-151.217956-208.500119-86.081984-321.303196a234.646728 234.646728 0 0 1 187.236629-117.225097z" fill="#00496E" p-id="1221"></path><path d="M829.003973 257.437138a269.803675 269.803675 0 0 0-26.721094 1.012907c-36.827487 3.000926-78.575889 11.988587-116.249984 21.172781a30.001703 30.001703 0 0 0-22.042068 36.245444 30.001703 30.001703 0 0 0 36.245444 22.042067c36.373947-8.866716 76.345981-17.158948 106.922169-19.653421 15.291873-1.239677 28.27069-0.861727 35.769226 0.566926 2.811951 0.529131 3.567852 0.937317 4.399343 1.269913 0.22677 1.995578 0.619839 9.501673-8.564357 26.471647-10.522139 19.426651-30.878548 45.240663-58.196803 72.717657-54.63651 54.969107-136.8634 117.489662-224.910725 168.323992-88.047326 50.834329-183.313504 90.791246-258.230834 110.626083-37.454885 9.917419-69.988856 14.626681-92.083836 14.029518-19.396415-0.529131-25.700627-4.686585-27.265342-5.850672 0.128503-0.907081 0.173857-1.919988 1.179205-4.79997 2.585181-7.370033 8.881834-18.995787 17.809023-31.823424 17.839259-25.670391 45.671527-56.632088 72.309471-84.154437a30.001703 30.001703 0 0 0-0.710547-42.421153 30.001703 30.001703 0 0 0-42.413594 0.695429c-27.650851 28.57305-56.994921 60.774425-78.439826 91.622737-10.733791 15.420376-19.615626 30.387212-25.171497 46.261129-5.555871 15.858799-8.647505 35.43663 1.988019 53.865491 16.161159 27.991007 47.568838 35.723872 79.074783 36.585599 31.505946 0.861727 68.12934-5.162803 109.076487-16.00242 81.894293-21.679235 180.463758-63.306693 272.88019-116.66573 92.408874-53.351479 177.750075-117.905408 237.473798-177.991963 29.858082-30.039498 53.374156-58.733493 68.386346-86.452375 15.004631-27.718883 24.022528-58.793965 7.861368-86.777413-10.567493-18.307918-28.905647-25.360472-45.217986-28.467224a148.413564 148.413564 0 0 0-25.156379-2.449118z" fill="#00496E" p-id="1222"></path><path d="M896.54371 699.964146a30.009262 30.009262 0 0 0-26.819361 16.576905s-14.301643 28.134628-47.31939 46.71467a30.009262 30.009262 0 0 0 0 52.293218c33.017747 18.572483 47.31939 46.691993 47.31939 46.691992a30.009262 30.009262 0 0 0 53.668958 0s14.278966-28.11951 47.296713-46.691992a30.009262 30.009262 0 0 0 0-52.293218c-33.017747-18.580042-47.304272-46.71467-47.304272-46.71467a30.009262 30.009262 0 0 0-26.834479-16.576905z m0 79.233523c3.129429 3.409113 5.933821 6.697281 9.67553 10.204661-3.741709 3.50738-6.546101 6.787989-9.67553 10.204661-3.129429-3.416672-5.926262-6.712399-9.667971-10.219779 3.73415-3.50738 6.546101-6.78043 9.67553-10.189543z" fill="#FD6601" p-id="1223"></path><path d="M356.445025 845.134896a30.009262 30.009262 0 0 0-26.82692 16.576905s-14.286525 28.134628-47.31939 46.71467a30.009262 30.009262 0 0 0 0 52.293217c33.032865 18.572483 47.31939 46.691993 47.31939 46.691993a30.009262 30.009262 0 0 0 53.668958 0s14.286525-28.11951 47.304272-46.691993a30.009262 30.009262 0 0 0 0-52.293217c-33.025306-18.572483-47.304272-46.71467-47.304272-46.71467a30.009262 30.009262 0 0 0-26.834479-16.576905z m0 79.233523c3.129429 3.409113 5.933821 6.697281 9.67553 10.204661-3.741709 3.50738-6.546101 6.787989-9.67553 10.20466-3.129429-3.416672-5.933821-6.697281-9.667971-10.20466 3.73415-3.50738 6.538542-6.795548 9.67553-10.204661z" fill="#00496E" p-id="1224"></path><path d="M127.444876 216.890618a30.009262 30.009262 0 0 0-26.82692 16.584464s-14.286525 28.11951-47.31939 46.691993a30.009262 30.009262 0 0 0 0 52.293218c33.032865 18.580042 47.31939 46.71467 47.31939 46.714669a30.009262 30.009262 0 0 0 53.668958 0s14.286525-28.134628 47.304272-46.714669a30.009262 30.009262 0 0 0 0-52.293218c-33.025306-18.572483-47.304272-46.691993-47.304272-46.691993a30.009262 30.009262 0 0 0-26.834479-16.584464z m0 79.218405c3.129429 3.416672 5.933821 6.697281 9.67553 10.204661-3.741709 3.50738-6.546101 6.795548-9.67553 10.204661-3.129429-3.409113-5.933821-6.697281-9.667971-10.204661 3.73415-3.499821 6.538542-6.787989 9.67553-10.204661z" fill="#FD6601" p-id="1225"></path><path d="M603.889154 0a30.009262 30.009262 0 0 0-26.842038 16.576905s-14.286525 28.142187-47.304272 46.714669a30.009262 30.009262 0 0 0 0 52.293218c33.017747 18.572483 47.304272 46.699552 47.304272 46.699552a30.009262 30.009262 0 0 0 53.668958 0s14.286525-28.11951 47.31939-46.699552a30.009262 30.009262 0 0 0 0-52.293218c-33.032865-18.572483-47.31939-46.71467-47.31939-46.714669A30.009262 30.009262 0 0 0 603.874036 0z m0 79.218404c3.129429 3.416672 5.926262 6.712399 9.667971 10.219779-3.73415 3.50738-6.546101 6.795548-9.67553 10.204661-3.12187-3.416672-5.926262-6.697281-9.667971-10.204661 3.741709-3.50738 6.538542-6.803107 9.67553-10.219779z" fill="#00496E" p-id="1226"></path></svg>