<svg t="1759387826716" class="icon" viewBox="0 0 1024 1024" version="1.1" xmlns="http://www.w3.org/2000/svg" p-id="2080" width="200" height="200"><path d="M53.333333 512c0-79.530667-0.042667-142.421333 6.528-191.573333 6.741333-50.005333 20.906667-90.453333 52.864-122.368 31.914667-31.957333 72.362667-46.122667 122.410667-52.864C284.16 138.666667 347.136 138.666667 426.666667 138.666667h170.666666c79.530667 0 142.421333-0.042667 191.573334 6.528 50.005333 6.741333 90.453333 20.906667 122.368 52.864 30.506667 30.464 44.8 68.693333 51.882666 115.712 6.954667 45.994667 7.466667 104.149333 7.509334 176.853333a32 32 0 0 1-64 0.085333c-0.042667-74.069333-0.725333-127.061333-6.826667-167.424-5.930667-39.424-16.554667-62.72-33.792-80-18.048-18.048-42.794667-28.885333-85.717333-34.645333-43.861333-5.888-101.632-5.973333-182.997334-5.973333h-170.666666c-81.365333 0-139.136 0.085333-183.04 5.973333-42.88 5.76-67.626667 16.597333-85.674667 34.645333-18.048 18.048-28.885333 42.794667-34.645333 85.717334-5.930667 43.861333-5.973333 101.632-5.973334 182.997333 0 81.365333 0.085333 139.136 5.973334 183.04 5.76 42.88 16.597333 67.626667 34.645333 85.674667 18.048 18.048 42.794667 28.885333 85.717333 34.645333 43.861333 5.930667 101.632 5.973333 182.997334 5.973333h64a32 32 0 0 1 0 64H426.666667c-79.530667 0-142.421333 0.042667-191.573334-6.528-50.005333-6.741333-90.453333-20.906667-122.368-52.864-31.957333-31.914667-46.122667-72.362667-52.864-122.410666C53.333333 654.506667 53.333333 591.530667 53.333333 512z" fill="#101010" p-id="2081"></path><path d="M233.386667 318.72a32 32 0 0 1 45.226666 0l158.592 158.592c0-3.114667 0.170667-6.229333 0.128-9.386667a853.333333 853.333333 0 0 0-2.346666-55.082666l-0.213334-3.626667-0.085333-0.938667-0.085333-0.213333a32 32 0 0 1 63.829333-5.461333l-31.872 2.730666 31.872-2.688v0.426667l0.128 1.109333 0.256 4.010667c0.256 3.456 0.64 8.405333 0.981333 14.336 0.682667 11.904 1.365333 28.074667 1.493334 44.928 0.128 16.64-0.298667 34.901333-2.133334 50.688a145.066667 145.066667 0 0 1-4.437333 23.381333 57.6 57.6 0 0 1-13.653333 24.832c-8.106667 8.106667-18.389333 11.776-24.874667 13.653334-7.381333 2.176-15.573333 3.584-23.381333 4.48-15.786667 1.834667-34.005333 2.261333-50.688 2.133333-16.853333-0.128-33.024-0.853333-44.928-1.493333-5.973333-0.341333-10.88-0.725333-14.336-0.981334l-4.010667-0.298666-1.109333-0.042667-0.298667-0.042667h-0.128l2.688-31.914666-2.688 31.914666a32 32 0 0 1 5.376-63.786666h0.256l0.938667 0.085333 3.626666 0.256a938.069333 938.069333 0 0 0 55.125334 2.346667l9.344-0.128L233.386667 363.946667a32 32 0 0 1 0-45.226667zM906.666667 725.333333c0-31.061333-0.042667-51.157333-2.048-65.962666-1.877333-13.866667-4.906667-18.218667-7.338667-20.650667-2.432-2.432-6.784-5.461333-20.650667-7.338667-14.805333-2.005333-34.901333-2.048-65.962666-2.048h-85.333334c-31.061333 0-51.157333 0.042667-65.962666 2.048-13.866667 1.877333-18.218667 4.906667-20.650667 7.338667-2.432 2.432-5.461333 6.784-7.338667 20.650667-2.005333 14.805333-2.048 34.901333-2.048 65.962666 0 31.061333 0.042667 51.157333 2.048 65.962667 1.877333 13.866667 4.906667 18.218667 7.338667 20.650667 2.432 2.432 6.784 5.461333 20.650667 7.338666 14.805333 2.005333 34.901333 2.048 65.962666 2.048h85.333334c31.061333 0 51.157333-0.042667 65.962666-2.048 13.866667-1.877333 18.218667-4.906667 20.650667-7.338666 2.432-2.432 5.461333-6.784 7.338667-20.650667 2.005333-14.805333 2.048-34.901333 2.048-65.962667z m64 0c0 29.269333 0.085333 54.442667-2.602667 74.496-2.858667 20.992-9.216 41.088-25.514667 57.386667s-36.394667 22.656-57.386666 25.514667c-20.053333 2.688-45.226667 2.602667-74.496 2.602666h-85.333334c-29.269333 0-54.442667 0.085333-74.496-2.602666-20.992-2.858667-41.088-9.216-57.386666-25.514667s-22.656-36.394667-25.514667-57.386667c-2.688-20.053333-2.602667-45.226667-2.602667-74.496 0-29.269333-0.085333-54.442667 2.645334-74.496 2.816-20.992 9.173333-41.088 25.472-57.386666s36.394667-22.656 57.386666-25.514667c20.053333-2.688 45.226667-2.602667 74.496-2.602667h85.333334c29.269333 0 54.442667-0.085333 74.496 2.645334 20.992 2.816 41.088 9.173333 57.386666 25.472s22.656 36.394667 25.514667 57.386666c2.688 20.053333 2.602667 45.226667 2.602667 74.496z" fill="currentColor" p-id="2082"></path></svg>