<svg t="1759387980525" class="icon" viewBox="0 0 1024 1024" version="1.1" xmlns="http://www.w3.org/2000/svg" p-id="1676" width="200" height="200"><path d="M841.44078 885.510244c-11.239024 0-22.540488-4.295805-31.144585-12.899903L151.352195 213.678829c-17.195707-17.195707-17.195707-45.093463 0-62.28917s45.093463-17.195707 62.289171 0l658.931512 658.931512c17.195707 17.195707 17.195707 45.093463 0 62.28917-8.59161 8.604098-19.893073 12.899902-31.132098 12.899903z" fill="#020202" p-id="1677"></path><path d="M618.570927 655.734634c-10.252488 0-20.579902-3.559024-28.934244-10.839414-18.307122-15.971902-20.205268-43.794732-4.233366-62.139318a97.14638 97.14638 0 0 0 23.83922-63.762731c0-53.597659-43.607415-97.205073-97.242537-97.205073-23.04 0-45.268293 8.142049-62.776195 22.940097-18.369561 15.722146-46.254829 13.486829-62.039415-5.132488-15.722146-18.556878-13.386927-46.342244 5.157464-62.076878 33.292488-28.259902 75.800976-43.832195 119.658146-43.832195 102.150244 0 185.331512 83.143805 185.331512 185.294049 0 44.718829-16.15922 87.901659-45.580488 121.631219-8.666537 10.002732-20.892098 15.122732-33.180097 15.122732zM466.107317 696.707122c-4.732878 0-9.578146-0.761756-14.311024-2.397659-59.342049-20.392585-103.998439-68.83278-119.420878-129.548487-5.956683-23.552 8.291902-47.516098 31.881365-53.497756 23.339707-5.869268 47.478634 8.266927 53.497757 31.881365 8.042146 31.793951 31.45678 57.194146 62.651317 67.883708 22.977561 7.892293 35.265561 32.955317 27.335805 55.957853-6.243902 18.244683-23.32722 29.720976-41.634342 29.720976z" fill="#020202" p-id="1678"></path><path d="M755.749463 784.49639c-14.248585 0-28.259902-6.905756-36.739122-19.655805-13.449366-20.242732-7.979707-47.578537 12.288-61.027902 63.275707-42.133854 125.252683-104.210732 184.532293-184.832C790.078439 347.560585 657.770146 264.142049 512 264.142049c-68.857756 0-136.179512 19.443512-199.942244 57.831024-21.004488 12.712585-47.978146 5.769366-60.440976-15.022829-12.525268-20.829659-5.831805-47.878244 14.985366-60.416 77.761561-46.779317 160.330927-70.493659 245.397854-70.493659 181.148098 0 347.373268 106.945561 494.067512 317.802147a43.897132 43.897132 0 0 1 0 50.313366c-71.005659 102.025366-147.05639 180.411317-225.991805 232.935024-7.505171 5.00761-15.971902 7.405268-24.326244 7.405268zM512 861.958244c-181.02322 0-347.24839-106.920585-494.067512-317.802146a43.897132 43.897132 0 0 1 0-50.313366c39.31161-56.54478 80.471415-106.146341 122.180683-147.431025 17.320585-17.170732 45.093463-16.958439 62.28917 0.337171 17.070829 17.29561 16.958439 45.143415-0.374634 62.251707-31.694049 31.356878-63.213268 68.270829-93.858341 109.980098C233.984 690.450732 366.354732 773.869268 512 773.869268c23.15239 0 46.254829-2.147902 68.670439-6.418731 23.651902-4.670439 46.929171 11.114146 51.474732 35.015804 4.545561 23.864195-11.114146 46.929171-35.015805 51.474732-27.822829 5.307317-56.507317 8.017171-85.129366 8.017171z" fill="currentColor" p-id="1679"></path></svg>