<?xml version="1.0" standalone="no"?><!DOCTYPE svg PUBLIC "-//W3C//DTD SVG 1.1//EN" "http://www.w3.org/Graphics/SVG/1.1/DTD/svg11.dtd"><svg t="1759331720982" class="icon" viewBox="0 0 1024 1024" version="1.1" xmlns="http://www.w3.org/2000/svg" p-id="1188" xmlns:xlink="http://www.w3.org/1999/xlink" width="200" height="200"><path d="M874.752 398.6432h-36.4032a146.6368 146.6368 0 0 0-132.4544-140.9024L650.24 152.3712a116.0192 116.0192 0 0 0-156.9792-48.4352L197.2736 260.608l-1.7408 1.0752a146.7392 146.7392 0 0 0-109.8752 141.824v382.0544A146.5856 146.5856 0 0 0 232.0896 931.84h459.9296a146.5856 146.5856 0 0 0 146.432-146.432v-17.152h36.3008a73.8816 73.8816 0 0 0 73.8304-73.7792V472.4224a73.8816 73.8816 0 0 0-73.8304-73.7792zM522.24 158.2592a54.6304 54.6304 0 0 1 73.9328 22.784l40.1408 76.032H335.36z m255.0272 627.3024a85.0432 85.0432 0 0 1-84.992 84.992H232.0896a85.0944 85.0944 0 0 1-84.992-84.992V403.5072a85.0944 85.0944 0 0 1 84.992-84.992h459.9296a85.0944 85.0944 0 0 1 84.8896 80.128h-163.3792a184.8832 184.8832 0 0 0 0 369.7664h163.4816z m110.1312-90.9312a12.3904 12.3904 0 0 1-12.3904 12.3392h-267.4688a111.3088 111.3088 0 0 1-12.4416-1.28 122.3168 122.3168 0 0 1-17.8688-4.096 123.4432 123.4432 0 0 1 36.6592-241.3568h261.12a12.3904 12.3904 0 0 1 12.3904 12.3392z" fill="currentColor" p-id="1189"></path><path d="M606.72 583.5264m-39.168 0a39.168 39.168 0 1 0 78.336 0 39.168 39.168 0 1 0-78.336 0Z" fill="currentColor" p-id="1190"></path></svg>